<?xml version="1.0" encoding="UTF-8" standalone="no"?>
<svg
   version="1.1"
   id="Layer_1"
   x="0px"
   y="0px"
   width="32"
   height="32"
   viewBox="0 0 32 32"
   xml:space="preserve"
   xmlns="http://www.w3.org/2000/svg"
   xmlns:svg="http://www.w3.org/2000/svg"><defs
   id="defs2" />
<g
   id="icon-s-accept_2_"
   transform="matrix(1.0000153,0,0,1.0000153,-2.4458301e-4,0.51528969)">
	
	
	
<path
   style="fill:#ffffff"
   d="m 16.75379,22.146 h -0.002 c -0.578009,-0.001 -1.117012,-0.299 -1.479012,-0.818 l -0.496085,-0.864389 c -0.316,-0.454 -0.204,-1.078 0.249,-1.393 0.454,-0.316 1.077,-0.205 1.392,0.249 L 16.75379,19.955 24.248793,9.25 c 0.316,-0.453 0.939,-0.563 1.393,-0.246 0.453,0.317 0.563,0.94 0.246,1.393 l -7.653,10.934 c -0.364,0.517 -0.904,0.815 -1.481003,0.815 z"
   id="path2" /><path
   style="fill:#ffffff"
   d="m 11.753778,22.146 c 0,0 -0.001,0 -0.002,0 -0.578,-0.001 -1.117,-0.299 -1.479,-0.818 L 6.1107781,15.353 c -0.316,-0.454 -0.204,-1.078 0.249,-1.393 0.454,-0.316 1.077,-0.205 1.392,0.249 l 4.0019999,5.746 7.495,-10.705 c 0.316,-0.453 0.939,-0.563 1.393,-0.246 0.453,0.317 0.563,0.94 0.246,1.393 l -7.653,10.934 c -0.364,0.517 -0.904,0.815 -1.481,0.815 z"
   id="path1" /></g>
</svg>
